<?xml version="1.0" encoding="UTF-8" standalone="no"?>
<svg
   viewBox="0 0 120.3829 39.640787"
   fill="none"
   version="1.1"
   id="svg9"
   width="120.3829"
   height="39.640785"
   xmlns="http://www.w3.org/2000/svg"
   xmlns:svg="http://www.w3.org/2000/svg">
  <defs
     id="defs9" />
  <!-- Gem mark (light bg) -->
  <!-- Wordmark (outlined Instrument Serif 400) -->
  <g
     id="g7"
     transform="translate(-13.972415,-16.792222)">
    <g
       id="g4"
       transform="translate(-0.88532648,-10.668335)">
      <g
         id="g10"
         transform="matrix(1.3669236,0,0,1.3669236,12.484599,20.857885)">
        <g
           fill="#0f172a"
           transform="translate(30.094618,-0.805433)"
           id="g9">
          <path
             d="M 34,0 Q 19,0 19,11 q 0,9 13,12 l 23,4 q 21,4 27.5,11 Q 89,45 89,66 v 588 q 0,21 -6.5,28 Q 76,689 55,693 l -23,4 q -13,3 -13,12 q 0,11 15,11 h 322 q 23,0 25,-23 l 8,-166 q 2,-17 -13,-17 q -12,0 -14,13 l -5,33 q -8,52 -28,81 q -20,29 -45,41.5 Q 259,695 236,695 q -44,0 -60,-14 Q 160,667 160,638 V 402 q 0,-14 14,-14 h 35 q 44,0 54,47 l 11,50 q 3,13 15,13 q 12,0 12,-17 V 256 q 0,-17 -12,-17 q -12,0 -15,13 l -11,49 q -7,35 -19.5,46 Q 231,358 208,358 h -34 q -14,0 -14,-14 V 71 q 0,-21 6.5,-29.5 Q 173,33 194,30 l 47,-7 q 11,-2 11,-11 Q 252,0 237,0 Z"
             transform="matrix(0.032,0,0,-0.032,0,31.68)"
             id="path5" />
          <path
             d="M 120,-9 Q 78,-9 51,17.5 Q 24,44 24,88 q 0,43 27,81.5 Q 78,208 125,239 q 47,31 107,50 q 13,4 13,17 v 91 q 0,48 -15,68.5 Q 215,486 189,486 q -25,0 -45.5,-22.5 Q 123,441 114,388 Q 109,356 92.5,341.5 Q 76,327 59,327 q -28,0 -28,28 q 0,29 16.5,57.5 Q 64,441 91,464.5 q 27,23.5 59,37.5 q 32,14 64,14 q 99,0 99,-115 V 95 q 0,-42 21,-42 q 13,0 24,17.5 Q 369,88 369,130 q 0,16 13,16 q 12,0 12,-17 Q 394,56 368.5,23.5 Q 343,-9 311,-9 q -24,0 -38,19.5 Q 259,30 254,57 q -1,10 -8.5,10.5 Q 238,68 231,58 Q 207,25 182,8 Q 157,-9 120,-9 Z m 27,46 q 26,0 48,18.5 Q 217,74 231,105 q 14,31 14,70 v 73 q 0,19 -21,11 Q 163,237 129.5,198.5 Q 96,160 96,106 q 0,-69 51,-69 z"
             transform="matrix(0.032,0,0,-0.032,14.02,31.68)"
             id="path6" />
          <path
             d="m 180,-9 q -44,0 -79.5,29.5 Q 65,50 44,105 Q 23,160 23,236 q 0,85 25.5,148 Q 74,447 118,481.5 q 44,34.5 98,34.5 q 46,0 72,-18 q 10,-7 10,-22 l 2,-122 q 0,-15 -12,-15 q -11,0 -14,13 q -14,55 -27,85 q -13,30 -27,41.5 Q 206,490 189,490 q -20,0 -41.5,-23 Q 126,444 111.5,392.5 Q 97,341 97,257 Q 97,150 124.5,96 Q 152,42 196,42 q 35,0 58.5,29 Q 278,100 295,176 q 3,11 12,11 q 12,0 9,-20 Q 305,97 285.5,58.5 Q 266,20 239.5,5.5 Q 213,-9 180,-9 Z"
             transform="matrix(0.032,0,0,-0.032,27.74,31.68)"
             id="path7" />
          <path
             d="m 192,-9 q -48,0 -86,32 Q 68,55 45.5,113.5 Q 23,172 23,249 q 0,79 23,139 q 23,60 63,94 q 40,34 89,34 q 59,0 95.5,-48.5 Q 330,419 330,310 q 0,-33 -25,-33 H 115 Q 95,277 95,254 Q 95,148 126,95 q 31,-53 79,-53 q 38,0 62,27 q 24,27 39,91 q 3,11 13,11 q 12,0 9,-20 Q 312,62 277,26.5 Q 242,-9 192,-9 Z m -80,311 h 101 q 48,0 48,50 q 0,65 -16,102 q -16,37 -48,37 q -39,0 -65.5,-45 Q 105,401 97,318 q -2,-16 15,-16 z"
             transform="matrix(0.032,0,0,-0.032,39.55,31.68)"
             id="path8" />
          <path
             d="M 147,-9 Q 112,-9 89.5,15.5 Q 67,40 67,96 v 374 q 0,12 -12,12 H 26 q -16,0 -16,12 q 0,8 9,14 q 33,23 53,49.5 Q 92,584 107,630 q 7,21 17,21 q 11,0 11,-16 V 524 q 0,-14 14,-14 h 65 q 16,0 16,-14 q 0,-14 -16,-14 h -65 q -14,0 -14,-14 V 95 q 0,-22 7,-34.5 Q 149,48 168,48 q 21,0 34.5,21 Q 216,90 220,137 q 2,14 13,14 q 12,0 12,-15 Q 242,59 213.5,25 Q 185,-9 147,-9 Z"
             transform="matrix(0.032,0,0,-0.032,51.87,31.68)"
             id="path9" />
        </g>
        <g
           id="g12-2"
           transform="translate(-157.26388,-33.169683)">
          <path
             d="m 163.5,38 h 10 l 4,7 h -18 z"
             fill="#2d6a96"
             id="path1-7-2" />
          <path
             d="m 165.5,39.5 h 6 L 174,44 h -11 z"
             fill="#5ba4d9"
             opacity="0.25"
             id="path2-03-7" />
          <path
             d="m 159.5,45 l 9,22 V 45 Z"
             fill="#1e5a82"
             id="path3-9-3" />
          <path
             d="m 177.5,45 l -9,22 V 45 Z"
             fill="#2d6a96"
             id="path4-8-7" />
          <line
             x1="159"
             y1="45"
             x2="178"
             y2="45"
             stroke="#5ba4d9"
             stroke-width="0.5"
             opacity="0.5"
             id="line4-6-9" />
          <line
             x1="168.5"
             y1="38"
             x2="168.5"
             y2="67"
             stroke="#5ba4d9"
             stroke-width="0.35"
             opacity="0.25"
             id="line5-5-0" />
        </g>
      </g>
    </g>
  </g>
</svg>
